HIERARCHY
ROOT Hips
{
 OFFSET 0.000000 0.000000 0.000000
 CHANNELS 6 Xposition Yposition Zposition Yrotation Xrotation Zrotation
 JOINT Chest
 {
  OFFSET 0.000000 10.452742 -1.161416
  CHANNELS 3 Yrotation Xrotation Zrotation
  JOINT Chest2
  {
   OFFSET 0.000000 11.642015 0.000000
   CHANNELS 3 Yrotation Xrotation Zrotation
   JOINT Chest3
   {
    OFFSET 0.000000 10.628653 0.003331
    CHANNELS 3 Yrotation Xrotation Zrotation
    JOINT Chest4
    {
     OFFSET 0.000000 10.616789 0.003334
     CHANNELS 3 Yrotation Xrotation Zrotation
     JOINT Neck
     {
      OFFSET 0.000000 14.863263 0.000000
      CHANNELS 3 Yrotation Xrotation Zrotation
      JOINT Head
      {
       OFFSET 0.000000 9.883432 -0.007164
       CHANNELS 3 Yrotation Xrotation Zrotation
       End Site
       {
        OFFSET 0.000000 18.374284 -0.000963
       }
      }
     }
     JOINT RightCollar
     {
      OFFSET -3.226349 8.329632 0.000000
      CHANNELS 3 Yrotation Xrotation Zrotation
      JOINT RightShoulder
      {
       OFFSET -15.005172 0.000000 0.000000
       CHANNELS 3 Yrotation Xrotation Zrotation
       JOINT RightElbow
       {
        OFFSET -32.060772 0.000000 0.000000
        CHANNELS 3 Yrotation Xrotation Zrotation
        JOINT RightWrist
        {
         OFFSET -26.219035 0.000000 0.000000
         CHANNELS 3 Yrotation Xrotation Zrotation
         End Site
         {
          OFFSET -19.605622 0.000000 0.000000
         }
        }
       }
      }
     }
     JOINT LeftCollar
     {
      OFFSET 3.226349 8.329632 0.000000
      CHANNELS 3 Yrotation Xrotation Zrotation
      JOINT LeftShoulder
      {
       OFFSET 15.005172 0.000000 0.000000
       CHANNELS 3 Yrotation Xrotation Zrotation
       JOINT LeftElbow
       {
        OFFSET 32.060772 0.000000 0.000000
        CHANNELS 3 Yrotation Xrotation Zrotation
        JOINT LeftWrist
        {
         OFFSET 26.219035 0.000000 0.000000
         CHANNELS 3 Yrotation Xrotation Zrotation
         End Site
         {
          OFFSET 19.605622 0.000000 0.000000
         }
        }
       }
      }
     }
    }
   }
  }
 }
 JOINT RightHip
 {
  OFFSET -8.580723 -0.006978 0.000775
  CHANNELS 3 Yrotation Xrotation Zrotation
  JOINT RightKnee
  {
   OFFSET 0.000000 -44.536629 0.000787
   CHANNELS 3 Yrotation Xrotation Zrotation
   JOINT RightAnkle
   {
    OFFSET 0.000000 -43.528603 0.001328
    CHANNELS 3 Yrotation Xrotation Zrotation
    JOINT RightToe
    {
     OFFSET 0.000000 -7.259351 16.426635
     CHANNELS 3 Yrotation Xrotation Zrotation
     End Site
     {
      OFFSET 0.000000 -1.634445 7.029403
     }
    }
   }
  }
 }
 JOINT LeftHip
 {
  OFFSET 8.580723 -0.009328 0.001036
  CHANNELS 3 Yrotation Xrotation Zrotation
  JOINT LeftKnee
  {
   OFFSET 0.000000 -44.536629 0.000787
   CHANNELS 3 Yrotation Xrotation Zrotation
   JOINT LeftAnkle
   {
    OFFSET 0.000000 -43.528603 0.001328
    CHANNELS 3 Yrotation Xrotation Zrotation
    JOINT LeftToe
    {
     OFFSET 0.000000 -7.259351 16.426635
     CHANNELS 3 Yrotation Xrotation Zrotation
     End Site
     {
      OFFSET 0.000000 -1.634445 7.029403
     }
    }
   }
  }
 }
}
MOTION
Frames: 11
Frame Time: 0.004167
-207.332750 92.325157 868.653366 -14.901459 4.919513 -1.657435 3.536938 2.167200 1.274808 1.509709 -4.853169 0.551838 1.504443 0.965256 0.705096 1.181046 6.562122 0.529968 4.431458 9.009869 -1.093984 9.198124 -19.059831 -4.260594 5.588490 -8.359420 7.137148 5.862354 -24.566098 67.184271 11.460273 -9.368429 11.241617 -6.145290 -0.038700 -7.094474 -2.003496 -6.148109 -9.665027 31.680935 6.784691 -69.620264 9.748559 6.790734 -9.815481 0.709070 -1.407835 3.999217 -1.017375 14.978193 3.668113 1.822481 4.771929 0.182962 9.261669 -16.066702 -6.387471 -0.001712 -6.285944 0.016446 2.673631 -25.741562 -2.002336 3.685371 -2.892605 -1.276397 -6.692729 -4.618250 0.203903 -0.000000 -0.000000 -0.000000
-207.413684 92.230975 869.291129 -14.967859 4.865127 -1.567381 3.539264 2.158049 1.213891 1.513800 -4.857725 0.524742 1.508508 0.960687 0.678416 1.182095 6.558652 0.509830 4.437994 9.020154 -1.082219 9.204300 -19.041339 -4.239635 5.563662 -8.383934 7.136466 5.765669 -24.501610 67.280047 11.696889 -9.430110 11.287155 -6.080486 -0.067858 -7.112826 -2.010837 -6.157237 -9.640617 31.786201 6.890332 -69.561360 9.849777 6.837689 -9.732426 0.813555 -1.372610 3.987964 -1.148777 15.002574 3.404280 1.657089 5.600311 0.251649 9.756691 -16.380497 -6.572836 -0.001932 -6.614684 0.031097 2.548762 -25.794924 -2.045439 3.849919 -2.074247 -1.292709 -6.469592 -4.345524 0.655459 -0.000000 0.000000 0.000000
-207.483806 92.158206 869.924497 -15.022264 4.817074 -1.458840 3.536411 2.148750 1.146241 1.515919 -4.862414 0.494671 1.510608 0.955990 0.648560 1.181433 6.555076 0.487299 4.442944 9.031148 -1.069394 9.206802 -19.021764 -4.215783 5.528058 -8.415830 7.141175 5.664379 -24.421321 67.381797 11.922626 -9.484077 11.332731 -5.995299 -0.103774 -7.129403 -2.024242 -6.174062 -9.624086 31.884578 6.983260 -69.506395 9.944495 6.882817 -9.654089 0.920340 -1.339903 3.974756 -1.328701 14.986427 3.106949 1.488585 6.458461 0.312982 10.255013 -16.563662 -6.711707 -0.000436 -7.097675 0.009348 2.408942 -25.835740 -2.111539 3.979159 -1.345716 -1.300601 -6.239962 -3.984366 1.025977 0.000000 -0.000000 0.000000
-207.539957 92.105418 870.554690 -15.064235 4.777080 -1.324660 3.527270 2.137199 1.068041 1.515766 -4.868201 0.459943 1.510441 0.950200 0.613818 1.178704 6.550668 0.461084 4.446852 9.044497 -1.053788 9.205714 -18.998168 -4.185761 5.477769 -8.457966 7.152547 5.560334 -24.320379 67.488839 12.144914 -9.528805 11.383898 -5.888444 -0.148525 -7.145027 -2.045123 -6.201428 -9.614213 31.985599 7.068640 -69.453091 10.036603 6.926621 -9.577245 1.028195 -1.311508 3.962105 -1.572385 14.936947 2.760843 1.301223 7.347848 0.366594 10.808449 -16.700808 -6.840122 0.003226 -7.664958 -0.023658 2.241525 -25.874282 -2.201083 4.082489 -0.678231 -1.302227 -5.988314 -3.477346 1.324867 0.000000 -0.000000 0.000000
-207.581809 92.068082 871.183936 -15.094823 4.744662 -1.162832 3.511567 2.121981 0.977706 1.513301 -4.875722 0.419863 1.507965 0.942683 0.573489 1.173825 6.544950 0.430660 4.450377 9.061257 -1.034456 9.201777 -18.968623 -4.147929 5.411261 -8.510557 7.170422 5.453200 -24.196107 67.601618 12.371445 -9.564419 11.445183 -5.761785 -0.202562 -7.160777 -2.073440 -6.239738 -9.608738 32.095893 7.151237 -69.400079 10.129360 6.968599 -9.499359 1.135711 -1.288301 3.952638 -1.881351 14.862648 2.360717 1.083721 8.270348 0.412150 11.452307 -16.867549 -6.992360 0.008839 -8.247189 -0.046395 2.039694 -25.920822 -2.310400 4.172632 -0.024737 -1.301017 -5.699231 -2.795912 1.580878 0.000000 0.000000 -0.000000
-207.612067 92.044872 871.812418 -15.115047 4.717935 -0.978765 3.490186 2.104169 0.877799 1.508784 -4.884472 0.375558 1.503443 0.933942 0.528726 1.167080 6.538304 0.396895 4.453404 9.080543 -1.012428 9.195354 -18.934682 -4.104346 5.331187 -8.571068 7.193560 5.341244 -24.051298 67.720758 12.599860 -9.592349 11.514302 -5.617565 -0.264222 -7.176504 -2.107863 -6.286626 -9.607450 32.210563 7.229092 -69.348684 10.221116 7.008039 -9.421967 1.243209 -1.269186 3.945511 -2.241785 14.760798 1.918028 0.843806 9.225815 0.447746 12.159638 -17.030466 -7.155816 0.016194 -8.867936 -0.069901 1.811135 -25.972381 -2.436977 4.248579 0.615872 -1.297931 -5.379090 -1.975434 1.802444 -0.000000 -0.000000 0.000000
-207.633434 92.034458 872.440317 -15.125926 4.695003 -0.777861 3.463997 2.084845 0.770882 1.502474 -4.893942 0.328157 1.497134 0.924487 0.480685 1.158747 6.531113 0.360660 4.455820 9.101464 -0.988735 9.186808 -18.897903 -4.057069 5.240211 -8.636972 7.220720 5.222728 -23.888737 67.846889 12.827813 -9.613986 11.588941 -5.458036 -0.331851 -7.192025 -2.147059 -6.339731 -9.610144 32.324694 7.300272 -69.300260 10.310215 7.044248 -9.346614 1.351004 -1.253060 3.939884 -2.639770 14.628951 1.444304 0.589107 10.213986 0.471953 12.903212 -17.156311 -7.316890 0.025319 -9.550705 -0.105266 1.563509 -26.025883 -2.578328 4.309285 1.244716 -1.293754 -5.034561 -1.051305 1.997973 0.000000 -0.000000 0.000000
-207.648614 92.035515 873.067817 -15.128481 4.673965 -0.565520 3.433858 2.065097 0.659518 1.494623 -4.903621 0.278787 1.489289 0.914828 0.430519 1.149102 6.523762 0.322824 4.457510 9.123132 -0.964406 9.176499 -18.859851 -4.008150 5.141010 -8.705754 7.250650 5.095908 -23.711196 67.980653 13.052978 -9.630678 11.666752 -5.285455 -0.403809 -7.207126 -2.189689 -6.396691 -9.616615 32.433353 7.362873 -69.256186 10.394996 7.076547 -9.274851 1.459407 -1.238809 3.934920 -3.061329 14.465055 0.951096 0.327184 11.234488 0.483884 13.655525 -17.212024 -7.460985 0.036562 -10.318940 -0.163632 1.304449 -26.078123 -2.732001 4.353678 1.862924 -1.289100 -4.672435 -0.058931 2.175846 0.000000 -0.000000 -0.000000
-207.660312 92.046714 873.695100 -15.123743 4.652921 -0.347139 3.400612 2.046029 0.546266 1.485478 -4.912995 0.228578 1.480156 0.905478 0.379382 1.138416 6.516640 0.284257 4.458364 9.144652 -0.940467 9.164783 -18.822093 -3.959633 5.036278 -8.774912 7.282091 4.959033 -23.521438 68.122715 13.273044 -9.643735 11.745358 -5.102089 -0.478475 -7.221557 -2.234409 -6.455150 -9.626667 32.531596 7.415020 -69.217866 10.473792 7.104274 -9.208234 1.568724 -1.225314 3.929783 -3.492471 14.267522 0.449918 0.065554 12.286849 0.483264 14.388910 -17.164740 -7.572591 0.050704 -11.196033 -0.256186 1.041555 -26.125737 -2.895591 4.380667 2.471627 -1.284429 -4.299493 0.966273 2.344430 0.000000 0.000000 -0.000000
-207.671232 92.066729 874.322349 -15.112751 4.629977 -0.128116 3.365088 2.028753 0.433685 1.475280 -4.921546 0.178658 1.469978 0.896954 0.328426 1.126958 6.510136 0.245827 4.458269 9.165130 -0.917944 9.152014 -18.786205 -3.913557 4.928727 -8.841962 7.313773 4.810343 -23.322212 68.273763 13.485719 -9.654433 11.822343 -4.910212 -0.554246 -7.235030 -2.279877 -6.512749 -9.640107 32.614466 7.454864 -69.186721 10.544931 7.126774 -9.148320 1.679260 -1.211453 3.923636 -3.919250 14.035269 -0.047803 -0.188259 13.370521 0.470507 15.075764 -16.981775 -7.635467 0.069115 -12.205344 -0.394149 0.782393 -26.165182 -3.066736 4.389145 3.071964 -1.280043 -3.922425 1.988891 2.512098 -0.000000 0.000000 -0.000000
-207.684077 92.094232 874.949745 -15.096557 4.603249 0.086150 3.328097 2.014396 0.324331 1.464264 -4.928754 0.130156 1.458989 0.889776 0.278805 1.114991 6.504644 0.208403 4.457116 9.183666 -0.897858 9.138543 -18.753769 -3.871953 4.821081 -8.904433 7.344413 4.648069 -23.116258 68.434524 13.688733 -9.664016 11.895257 -4.712113 -0.629540 -7.247226 -2.324747 -6.567133 -9.656748 32.676999 7.480577 -69.164181 10.606734 7.143404 -9.096658 1.791316 -1.196097 3.915640 -4.327830 13.767719 -0.530788 -0.426681 14.484905 0.446798 15.688901 -16.630576 -7.632927 0.093952 -13.370232 -0.588779 0.534496 -26.192736 -3.243118 4.378001 3.665077 -1.276099 -3.547787 2.973502 2.687254 -0.000000 0.000000 -0.000000
